<svg width="182" height="39" viewBox="0 0 182 39" fill="none" xmlns="http://www.w3.org/2000/svg">
<path d="M32.9503 15.2753L22.2576 34.1512H18.4933L7.85518 15.7663V38.1882H-0.000690833V-1.20944e-05H6.92775L20.5119 23.7313L33.8777 -1.20944e-05H40.8062L40.8607 38.1882H33.0049L32.9503 15.2753ZM58.8173 8.4014C63.1453 8.4014 66.455 9.49249 68.7462 11.6747C71.0739 13.8205 72.2377 17.0756 72.2377 21.44V38.1882H64.6546V34.5331C63.0907 37.2608 60.2539 38.6247 56.1441 38.6247C53.9983 38.6247 52.1435 38.2428 50.5796 37.479C49.0157 36.7153 47.8155 35.6605 46.9789 34.3149C46.1424 32.9692 45.7242 31.4416 45.7242 29.7323C45.7242 27.0045 46.7062 24.8587 48.6701 23.2948C50.6341 21.7309 53.6528 20.949 57.7262 20.949H64.1091C64.1091 19.6397 63.8909 18.6213 63.4544 17.8939C62.4725 16.0754 60.5631 15.1662 57.7262 15.1662C56.2351 15.1662 54.7621 15.4208 53.3073 15.9299C51.8889 16.4027 50.6705 17.0574 49.6521 17.8939L46.7607 11.9475C48.2519 10.82 50.0704 9.94712 52.2162 9.32883C54.362 8.71054 56.5624 8.4014 58.8173 8.4014ZM58.1626 32.8964C59.5811 32.8964 60.8176 32.5691 61.8724 31.9144C62.9271 31.2234 63.6727 30.2233 64.1091 28.9139V25.9134H58.5991C55.2894 25.9134 53.6346 27.0591 53.6346 29.3504C53.6346 30.4415 54.0347 31.3143 54.8348 31.969C55.6349 32.5873 56.7442 32.8964 58.1626 32.8964ZM96.4063 36.7698C95.6062 37.3881 94.6242 37.8609 93.4603 38.1882C92.3329 38.4792 91.1145 38.6247 89.8052 38.6247C86.4955 38.6247 83.9315 37.7336 82.113 35.9515C80.2945 34.1694 79.3852 31.5508 79.3852 28.0956V16.0391H75.13V9.49249H79.3852V2.34584H87.5139V9.49249H94.4423V16.0391H87.5139V27.9865C87.5139 29.2231 87.8048 30.1869 88.3868 30.8779C89.005 31.5326 89.8597 31.8599 90.9508 31.8599C92.2238 31.8599 93.3149 31.4962 94.2241 30.7688L96.4063 36.7698ZM126.065 23.6221C126.065 23.7313 126.011 24.495 125.902 25.9134H104.844C105.244 27.7319 106.135 29.1685 107.517 30.2233C108.935 31.278 110.699 31.8053 112.808 31.8053C114.263 31.8053 115.536 31.5871 116.627 31.1507C117.755 30.6779 118.809 29.9505 119.791 28.9685L124.101 33.8784C121.446 37.0426 117.609 38.6247 112.59 38.6247C109.426 38.6247 106.626 37.9882 104.189 36.7153C101.788 35.4059 99.9336 33.6056 98.6243 31.3143C97.315 29.0231 96.6603 26.4226 96.6603 23.513C96.6603 20.6398 97.2968 18.0576 98.5697 15.7663C99.879 13.4386 101.661 11.6383 103.916 10.3654C106.207 9.05606 108.753 8.4014 111.554 8.4014C114.281 8.4014 116.736 9.01969 118.919 10.2563C121.137 11.4928 122.883 13.2749 124.156 15.6026C125.429 17.8939 126.065 20.5671 126.065 23.6221ZM111.608 14.8388C109.79 14.8388 108.244 15.3844 106.971 16.4755C105.735 17.5666 104.989 19.0577 104.734 20.949H118.428C118.137 19.0941 117.373 17.6211 116.136 16.53C114.936 15.4026 113.427 14.8388 111.608 14.8388Z" fill="black"/>
<path d="M144.801 38.1882H136.4V24.5496L122.379 -1.20944e-05H131.272L140.982 16.9665L150.639 -1.20944e-05H158.876L144.801 24.6587V38.1882ZM168.475 8.4014C172.803 8.4014 176.113 9.49249 178.404 11.6747C180.732 13.8205 181.896 17.0756 181.896 21.44V38.1882H174.313V34.5331C172.749 37.2608 169.912 38.6247 165.802 38.6247C163.656 38.6247 161.801 38.2428 160.238 37.479C158.674 36.7153 157.473 35.6605 156.637 34.3149C155.8 32.9692 155.382 31.4416 155.382 29.7323C155.382 27.0045 156.364 24.8587 158.328 23.2948C160.292 21.7309 163.311 20.949 167.384 20.949H173.767C173.767 19.6397 173.549 18.6213 173.112 17.8939C172.13 16.0754 170.221 15.1662 167.384 15.1662C165.893 15.1662 164.42 15.4208 162.965 15.9299C161.547 16.4027 160.328 17.0574 159.31 17.8939L156.419 11.9475C157.91 10.82 159.728 9.94712 161.874 9.32883C164.02 8.71054 166.22 8.4014 168.475 8.4014ZM167.821 32.8964C169.239 32.8964 170.476 32.5691 171.53 31.9144C172.585 31.2234 173.331 30.2233 173.767 28.9139V25.9134H168.257C164.947 25.9134 163.293 27.0591 163.293 29.3504C163.293 30.4415 163.693 31.3143 164.493 31.969C165.293 32.5873 166.402 32.8964 167.821 32.8964Z" fill="#02C44B"/>
</svg>
